:version 1.10
:name ASF
:units
  mass 1
  length 1
  angle deg
:documentation
  ASF file generated by Kaydara
:root
  axis xyz
  order  tx ty tz rx ry rz
  position 0 0 0
  orientation 0 0 0
:bonedata
  begin
    id 1
    name SpineDummy
    direction 0.999998 -0.00179978 1.38929e-006
    length 3.60008
    axis 0 0 0 xyz
  end
  begin
    id 2
    name Spine
    direction 0.964365 0.262802 0.0305839
    length 8.13928
    axis 1.33928 -1.75354 15.2838 xyz
    dof rx ry rz
  end
  begin
    id 3
    name Spine1
    direction 0.811168 0.572065 0.12144
    length 7.14954
    axis 2.2224 -6.9761 35.2157 xyz
    dof rx ry rz
  end
  begin
    id 4
    name Neck
    direction 0 0 0
    length 0
    axis 2.2224 -6.9761 35.2157 xyz
    dof rx ry rz
  end
  begin
    id 5
    name HeadDummy
    direction 0.810939 0.572387 0.121455
    length 3.55534
    axis 2.2224 -6.9761 35.2157 xyz
  end
  begin
    id 6
    name Head
    direction 0.998226 -0.000232542 0.0595419
    length 7.35666
    axis -3.03688 -3.41352 -0.0133467 xyz
    dof rx ry rz
  end
  begin
    id 7
    name R_ClavicleDummy
    direction 0.531669 -0.194489 -0.824319
    length 2.49392
    axis 2.2224 -6.9761 35.2157 xyz
  end
  begin
    id 8
    name R_Clavicle
    direction -0.155119 0.0480802 -0.986725
    length 4.485
    axis -54.2764 80.6538 162.779 xyz
    dof rx ry rz
  end
  begin
    id 9
    name R_UpperArm
    direction -0.955567 0.200068 -0.216484
    length 10.1122
    axis -72.9943 12.5026 168.175 xyz
    dof rx ry rz
  end
  begin
    id 10
    name R_Forearm
    direction -0.61433 0.385743 0.688332
    length 9.39148
    axis -117.015 -43.4982 147.875 xyz
    dof rx ry rz
  end
  begin
    id 11
    name R_Hand
    direction -0.699429 0.0170333 0.714499
    length 3.66324
    axis -45.0303 -36.7097 175.478 xyz
    dof rx ry rz
  end
  begin
    id 12
    name L_ClavicleDummy
    direction 0.40287 -0.36502 0.839319
    length 2.49392
    axis 2.2224 -6.9761 35.2157 xyz
  end
  begin
    id 13
    name L_Clavicle
    direction -0.231271 -0.0726419 0.970174
    length 4.485
    axis 18.4357 -75.9711 -162.563 xyz
    dof rx ry rz
  end
  begin
    id 14
    name L_UpperArm
    direction -0.917494 0.144359 0.370629
    length 10.1122
    axis 56.0417 -21.7544 171.058 xyz
    dof rx ry rz
  end
  begin
    id 15
    name L_Forearm
    direction -0.496786 0.615074 -0.612281
    length 9.39148
    axis 89.8094 37.7546 128.927 xyz
    dof rx ry rz
  end
  begin
    id 16
    name L_Hand
    direction -0.409932 0.64962 -0.640274
    length 3.66324
    axis -0.424369 32.133 128.52 xyz
    dof rx ry rz
  end
  begin
    id 17
    name L_ThighDummy
    direction -1.84081e-006 1.87549e-006 1
    length 3.13049
    axis 0 0 0 xyz
  end
  begin
    id 18
    name L_Thigh
    direction -0.947739 0.307978 0.083308
    length 17.9961
    axis 173.219 -4.77873 161.998 xyz
    dof rx ry rz
  end
  begin
    id 19
    name L_Calf
    direction -0.728814 -0.684427 0.0197583
    length 13.3367
    axis 167.331 -1.13214 -136.799 xyz
    dof rx ry rz
  end
  begin
    id 20
    name L_Foot
    direction -0.9028 0.418719 0.0981191
    length 5.8674
    axis 163.436 11.5135 -155.37 xyz
    dof rx ry rz
  end
  begin
    id 21
    name L_Toe0
    direction -0.35341 0.886259 0.299411
    length 4.75286
    axis 169.316 -17.4222 111.74 xyz
    dof rx ry rz
  end
  begin
    id 22
    name R_ThighDummy
    direction 9.32778e-007 -8.82053e-007 -1
    length 3.13049
    axis 0 0 0 xyz
  end
  begin
    id 23
    name R_Thigh
    direction -0.925064 0.37528 -0.0585023
    length 17.9961
    axis -178.698 3.35385 157.919 xyz
    dof rx ry rz
  end
  begin
    id 24
    name R_Calf
    direction -0.68969 -0.718776 -0.0876886
    length 13.3367
    axis -160.504 5.03065 -133.817 xyz
    dof rx ry rz
  end
  begin
    id 25
    name R_Foot
    direction -0.857405 0.418858 -0.299022
    length 5.8674
    axis -161.328 4.38911 -154.413 xyz
    dof rx ry rz
  end
  begin
    id 26
    name R_Toe0
    direction -0.100745 0.952789 -0.286433
    length 4.75286
    axis 171.683 16.6445 96.0359 xyz
    dof rx ry rz
  end
:hierarchy
  begin
    root SpineDummy L_ThighDummy R_ThighDummy
    SpineDummy Spine
    Spine Spine1
    Spine1 Neck
    Neck HeadDummy R_ClavicleDummy L_ClavicleDummy
    HeadDummy Head
    R_ClavicleDummy R_Clavicle
    R_Clavicle R_UpperArm
    R_UpperArm R_Forearm
    R_Forearm R_Hand
    L_ClavicleDummy L_Clavicle
    L_Clavicle L_UpperArm
    L_UpperArm L_Forearm
    L_Forearm L_Hand
    L_ThighDummy L_Thigh
    L_Thigh L_Calf
    L_Calf L_Foot
    L_Foot L_Toe0
    R_ThighDummy R_Thigh
    R_Thigh R_Calf
    R_Calf R_Foot
    R_Foot R_Toe0
  end

:SAMPLES-PER-SECOND 30
:FULLY-SPECIFIED
:DEGREES
154
root  -3.85939 30.7298 15.0391 -98.985 5.54266 91.0865
Spine  -3.36292 -2.71954 1.71401
Spine1  -3.07191 11.8831 -3.05549
Neck  3.97569e-016 0 -2.38542e-015
Head  12.4642 1.86218 -0.234865
R_Clavicle  0.451499 -19.2244 3.20948
R_UpperArm  50.3249 5.01909 64.0152
R_Forearm  22.0769 44.9524 -56.0033
R_Hand  -0.845738 11.6091 -18.3079
L_Clavicle  -0.428444 14.4357 1.48802
L_UpperArm  -22.9085 -13.2659 23.4282
L_Forearm  -11.0567 -14.3653 -17.2111
L_Hand  1.73825 12.2933 11.3679
L_Thigh  -17.128 -12.1078 -3.15797
L_Calf  4.58774 -0.805866 5.93659
L_Foot  12.7163 21.0002 19.0045
L_Toe0  5.58375 -1.07154 4.35564
R_Thigh  -0.265208 -0.68192 19.6067
R_Calf  -10.2194 -5.16979 -16.2649
R_Foot  1.19165 2.45169 -5.60886
R_Toe0  -2.09795 -0.263796 -17.5049
155
root  -4.60853 31.2271 14.0491 -93.0865 3.71506 88.7534
Spine  -5.93254 -4.44243 0.472589
Spine1  -5.6678 17.7752 -3.47213
Neck  3.97569e-016 0 -2.38542e-015
Head  14.7761 -1.8666 3.32415
R_Clavicle  0.723112 -12.7593 5.64628
R_UpperArm  65.0372 7.34394 70.324
R_Forearm  14.6889 45.4087 -57.3947
R_Hand  0.124917 13.8002 -13.2719
L_Clavicle  -0.407151 11.5246 2.12815
L_UpperArm  -40.7618 -12.8415 35.6574
L_Forearm  -10.2641 -14.8584 -17.8515
L_Hand  1.30945 11.3259 9.09969
L_Thigh  -18.0098 -13.8138 -6.81965
L_Calf  11.568 -0.878751 6.48667
L_Foot  8.45185 19.9918 9.39008
L_Toe0  12.1602 -2.93029 7.34381
R_Thigh  2.16029 0.42458 20.4749
R_Calf  -12.7244 -4.19792 -13.1423
R_Foot  2.60273 8.25892 -5.49469
R_Toe0  -1.78853 -0.272788 -17.3235
156
root  -5.35404 31.4588 13.0383 -88.4831 1.80583 86.8677
Spine  -8.31071 -6.57566 -0.670486
Spine1  -8.11157 22.9746 -4.08627
Neck  3.97569e-016 0 -2.38542e-015
Head  16.222 -4.93953 6.67052
R_Clavicle  1.37177 -4.64702 8.21376
R_UpperArm  74.2329 11.4567 71.5229
R_Forearm  10.9706 42.4606 -49.4757
R_Hand  0.860052 14.5761 -9.61617
L_Clavicle  -0.431914 8.0174 2.976
L_UpperArm  -53.3646 -12.3203 45.26
L_Forearm  -6.19103 -11.0092 -12.9959
L_Hand  0.936873 10.1348 7.0589
L_Thigh  -17.9522 -14.8294 -10.7607
L_Calf  16.6395 -0.890441 6.53711
L_Foot  4.56915 15.6762 2.25606
L_Toe0  18.2656 -4.915 8.985
R_Thigh  4.72457 2.85225 20.3072
R_Calf  -12.9792 -2.72469 -8.47844
R_Foot  3.17443 10.4314 -6.96137
R_Toe0  -1.78853 -0.272788 -17.3235
157
root  -6.07023 31.3668 12.0146 -84.9046 -0.124915 85.6483
Spine  -9.8281 -7.0705 -1.42738
Spine1  -10.2444 25.4565 -6.09461
Neck  3.97569e-016 0 -2.38542e-015
Head  15.7995 -7.35932 10.4645
R_Clavicle  2.24556 2.8837 10.4243
R_UpperArm  78.606 17.0983 71.8002
R_Forearm  11.3279 36.0321 -37.1927
R_Hand  1.16686 15.0705 -8.27415
L_Clavicle  -0.418634 3.05766 2.83019
L_UpperArm  -58.7396 -13.0199 51.1934
L_Forearm  0.865614 -3.03181 -3.51851
L_Hand  0.491789 8.51978 4.24136
L_Thigh  -17.0651 -15.5289 -14.7949
L_Calf  19.2357 -0.832587 6.03768
L_Foot  2.56205 11.9096 -1.0941
L_Toe0  19.4122 -5.97949 10.8146
R_Thigh  7.62948 6.18071 19.3194
R_Calf  -15.8447 -0.963509 -2.98303
R_Foot  3.8364 13.4771 -8.26091
R_Toe0  -1.74777 -0.275026 -17.3603
158
root  -6.78387 30.9644 10.9734 -81.9812 -2.05697 84.7358
Spine  -10.6167 -6.19192 -2.51258
Spine1  -11.7344 25.6731 -7.89676
Neck  3.97569e-016 0 -2.38542e-015
Head  14.3026 -9.12978 13.6569
R_Clavicle  3.09865 9.26354 11.9685
R_UpperArm  81.026 23.2908 72.3218
R_Forearm  13.09 25.2873 -23.1341
R_Hand  1.22494 14.5354 -7.65662
L_Clavicle  -0.178004 -1.97027 1.4405
L_UpperArm  -58.7613 -16.0548 54.9094
L_Forearm  6.13409 7.92452 9.2486
L_Hand  -0.0100449 6.89188 0.101106
L_Thigh  -15.4302 -16.4667 -18.6571
L_Calf  18.8808 -0.605431 4.28822
L_Foot  2.22456 10.8848 -1.4691
L_Toe0  19.9423 -6.49512 11.6268
R_Thigh  11.2216 9.47806 17.7816
R_Calf  -20.7453 1.01644 3.15795
R_Foot  4.41512 16.9562 -13.5511
R_Toe0  -1.98102 -0.284542 -17.1528
159
root  -7.4795 30.2141 9.92524 -78.8473 -3.6223 83.7777
Spine  -11.4858 -6.09644 -4.77435
Spine1  -12.7352 26.2421 -7.74115
Neck  3.97569e-016 0 -2.38542e-015
Head  12.8332 -10.4263 15.5299
R_Clavicle  3.88869 16.1019 12.7053
R_UpperArm  81.0215 28.5114 70.9138
R_Forearm  11.4195 9.82327 -8.29758
R_Hand  0.944214 12.4697 -7.85705
L_Clavicle  0.323153 -6.06431 -0.80115
L_UpperArm  -53.1896 -21.0872 57.7828
L_Forearm  5.02356 19.9059 24.9002
L_Hand  -0.34167 5.96309 -3.20738
L_Thigh  -13.6521 -17.3694 -21.7522
L_Calf  16.9136 -0.0765775 0.346416
L_Foot  2.57632 10.8222 -0.227466
L_Toe0  20.7093 -7.11772 12.4422
R_Thigh  15.2865 12.375 15.7914
R_Calf  -21.713 2.79804 8.73453
R_Foot  3.52781 11.0001 -20.4967
R_Toe0  -5.26575 0.126882 -14.4422
